<?xml version="1.0" standalone="no"?><!DOCTYPE svg PUBLIC "-//W3C//DTD SVG 1.1//EN" "http://www.w3.org/Graphics/SVG/1.1/DTD/svg11.dtd"><svg class="icon" height="512" viewBox="0 0 1024 1024" version="1.1" xmlns="http://www.w3.org/2000/svg"><path d="M451.244331 474.768387 539.352687 474.765366 539.352687 350.817397 571.433646 350.817397 495.307067 198.016501 419.174447 350.828473 451.244331 350.828473ZM433.120633 523.175777 451.244331 523.175777 451.244331 609.524121 495.377549 609.522107 539.352687 609.520094 539.352687 523.163694 557.476385 523.163694 557.476385 609.519087 700.314282 609.512039 642.209707 492.885037 348.39436 492.896112 290.285757 609.532176 433.120633 609.525128ZM504.363882 16.445242c-276.61193 0-501.652879 225.040948-501.652879 501.652879 0 276.61193 225.040948 501.652879 501.652879 501.652879 276.612937 0 501.652879-225.040948 501.652879-501.652879C1006.016761 241.485184 780.976819 16.445242 504.363882 16.445242zM193.868692 762.414629 193.868692 762.414629l16.693939-33.508703 170.665828-342.562053 16.221716 8.081155-40.029207 80.34638 75.698658-0.003021L433.119626 368.952171l-43.224012 0 105.410447-211.578062 105.405413 211.566986-43.235088 0 0 105.824271 75.704699-0.003021-40.029207-80.347387 16.221716-8.081155 44.055689 88.428542 0.004027 0 67.13219 134.749693 0 0 57.712902 115.846676 18.449924 37.031749L193.868692 762.414629zM495.371507 627.645805 281.255121 627.656881 223.147525 744.288917 433.120633 744.280862 433.120633 662.853102 451.244331 662.853102 451.244331 744.279855 539.352687 744.276835 539.352687 662.843033 557.476385 662.843033 557.476385 744.275828 767.4505 744.267773 709.342904 627.63473Z" /></svg>